# xmcd
#
# Track frame offsets:
#	150
#	17973
#	33696
#	50244
#	65892
#	82440
#	102213
#	117411
#	133284
#	152907
#	171930
#
# Disc length: 2513 seconds
# Revision: 0
# Processed by: cddbd v1.5.2PL0 Copyright (c) Steve Scherf et al.
# Submitted via: dBpowerAMP V12.0
#
DISCID=af09cf0b
DTITLE=Jennifer Day - The Fun Of Your Love
DYEAR=2000
DGENRE=Country
TTITLE0=The Fun Of Your Love
TTITLE1=Yeah Right
TTITLE2=Tell Me I'm The One
TTITLE3=Someday
TTITLE4=Somebody Else's Guy
TTITLE5=What If It's Me
TTITLE6=Gone By Dawn
TTITLE7=Completely
TTITLE8=I Turn To You
TTITLE9=Disappear
TTITLE10=Fearless
EXTD=
EXTT0=
EXTT1=
EXTT2=
EXTT3=
EXTT4=
EXTT5=
EXTT6=
EXTT7=
EXTT8=
EXTT9=
EXTT10=
PLAYORDER=
